<?xml version="1.0" encoding="UTF-8"?> <svg xmlns="http://www.w3.org/2000/svg" id="Layer_1" version="1.1" viewBox="0 0 575.7 140.5"><defs><style> .st0 { fill: #10a99e; } .st1 { fill: #009887; } .st2 { fill: #0e0048; } .st3 { fill: #fff; } .st4 { fill: #383266; } </style></defs><g><path class="st2" d="M139.3,99.9v-51.7l-74.1-25.6L-.3,90.8v36.6c0,6.7,5.5,12.2,12.2,12.2h67l10.7-10.6,9.9-9.8,1.8.6,29.7,9.2,7.6,2.4.7.2v-15.3l-27.6-8.6,12.9-12.2,14.7,4.5h0ZM75.5,125.2c-.4.4-.9.8-1.4,1.1-4.4,3.3-11,5.2-17.5,5.2s-5.8-.4-8.5-1.2l-8.2-2.5-7.5-2.3-16.5-5,4.9-4.6,4.9-4.7,11.8-11.2,16.5,5.1,6.5,2,1.1.3,8.2,2.5c9.1,2.8,11.7,9.6,5.8,15.3h0ZM94.3,94.1c-2.5,2.4-7,3.8-11.3,3.8s-3.5-.2-5.1-.7l-6.4-2-7.6-2.3-14.3-4.4,12.9-12.2,29.1,8.9c4.8,1.8,6,5.7,2.7,8.9h0Z"></path><g><path class="st3" d="M71.6,95.2l6.4,2c1.6.5,3.3.7,5.1.7,4.3,0,8.7-1.4,11.3-3.8,3.4-3.2,2.1-7-2.7-8.9l-29.1-8.9-12.9,12.2,14.4,4.4,7.6,2.3h0Z"></path><path class="st3" d="M25.6,111.2l-4.9,4.7-4.9,4.6,16.5,5,7.5,2.3,8.2,2.5c2.7.8,5.6,1.2,8.5,1.2,6.5,0,13.1-1.9,17.5-5.2.5-.4,1-.8,1.4-1.1,6-5.6,3.4-12.5-5.8-15.3l-8.2-2.5-1.1-.3-6.5-2-16.5-5.1-11.8,11.2h0Z"></path><polygon class="st3" points="131 129 101.4 119.8 99.6 119.2 89.7 129 79 139.6 139.3 139.6 139.3 131.5 138.6 131.3 131 129"></polygon><polygon class="st3" points="111.7 107.6 139.3 116.2 139.3 99.9 124.6 95.4 111.7 107.6"></polygon></g><path class="st4" d="M65.2,22.6L-.3,90.8V12.2C-.3,7.9,2,4.1,5.4,2c0,0,59.9,20.7,59.9,20.7Z"></path><path class="st0" d="M87,0l-12.9,13.4-8.9,9.2L5.4,2C7.3.7,9.5,0,11.9,0h75.1,0Z"></path><path class="st1" d="M139.3,12.2v36l-74.1-25.6,8.9-9.2L87,0h40.1c6.7,0,12.2,5.5,12.2,12.2h0Z"></path></g><g><g><path class="st2" d="M221.3,60.3c0,8.4-6.2,15.8-17.1,15.8h-24.2V21.8h23.1c10.3,0,15.4,6.9,15.4,13.5s-2.9,9.4-7.4,11c7,1.8,10.3,7.7,10.3,14h0ZM189.9,30.7v12.6h11.2c5,0,7.3-3.3,7.3-6.5s-2.4-6.1-6.9-6.1h-11.5ZM210.9,59.6c0-3.9-2.7-7.8-8.7-7.8h-12.4v15.4h12.4c5.8,0,8.7-3.9,8.7-7.6h0Z"></path><path class="st2" d="M261.2,52.3v23.8h-8.7v-4.7c-2.8,3.5-7.3,5.7-13.1,5.7-9.3,0-14.4-5.7-14.4-12.9s6.7-12.5,17.6-12.6c2.9,0,6.4,0,9.6-.4-.5-5.5-4.3-7.7-9.6-7.7s-8.9,1.4-12.4,3.4l-3.6-7.1c3.9-2.4,9.6-4.6,16.3-4.6s18.2,4.3,18.2,17.1h0ZM252.1,58.6c-2.4.2-4.9.3-7.2.3-6.4,0-10.5.8-10.5,5.2s2.6,5.2,6.6,5.2c6.1,0,10.6-4.5,11.1-10.7h0Z"></path><path class="st2" d="M267.5,36.2h9.2v5.5c2.5-4.5,6.3-6.6,11.1-6.6s3.2.2,4.8.8l-.8,9.2c-1.5-.5-3.2-.8-4.6-.8-5.5,0-10.1,3.5-10.1,12.3v19.5h-9.6v-39.9h0Z"></path><path class="st2" d="M297.9,36.2h9.2v5.5c2.5-4.5,6.3-6.6,11.1-6.6s3.2.2,4.8.8l-.8,9.2c-1.5-.5-3.2-.8-4.6-.8-5.5,0-10.1,3.5-10.1,12.3v19.5h-9.6v-39.9h0Z"></path></g><g><path class="st2" d="M179.9,84.9h35.5v9.6h-25.5v13.1h22.4v9.6h-22.4v22.1h-10v-54.4h0Z"></path><path class="st2" d="M217.5,119.3c0-11.6,8.7-21,21.3-21s21.3,9.4,21.3,21-8.7,21-21.3,21-21.3-9.4-21.3-21ZM250.5,119.3c0-6.6-5.1-12.1-11.7-12.1s-11.7,5.4-11.7,12.1,5.1,12.1,11.7,12.1,11.7-5.4,11.7-12.1Z"></path><path class="st2" d="M265.7,122.6v-23.2h9.6v23.2c0,5.3,3.1,8.9,8.4,8.9s8.5-3.6,8.5-8.9v-23.2h9.6v23.2c0,11.2-6.9,17.6-18.1,17.6s-18-6.6-18-17.6h0Z"></path><path class="st2" d="M308.2,99.4h9.4v5.6c2.1-3.9,6.7-6.6,12.6-6.6s15.7,5.3,15.7,16.6v24.3h-9.6v-21.7c0-6.8-3.6-10.5-8.8-10.5s-9.7,4.4-9.7,10.7v21.6h-9.6v-39.9Z"></path><path class="st2" d="M393.1,83.4v55.9h-9.3v-5.2c-2.9,3.5-7,6.2-12.7,6.2-11.4,0-19.9-9.1-19.9-21s8.5-20.9,19.8-20.9,9.7,2.6,12.6,6v-21h9.6ZM384.1,119.3c0-6.6-4.6-12.1-11.7-12.1s-11.6,5.5-11.6,12.1,4.6,12.2,11.6,12.2,11.7-5.4,11.7-12.2Z"></path><path class="st2" d="M434.2,115.5v23.8h-8.7v-4.7c-2.8,3.5-7.3,5.7-13.1,5.7-9.3,0-14.4-5.7-14.4-12.9s6.7-12.5,17.6-12.6c2.9,0,6.4,0,9.6-.4-.5-5.5-4.3-7.6-9.6-7.6s-8.9,1.4-12.4,3.4l-3.6-7.1c3.9-2.4,9.6-4.6,16.3-4.6s18.2,4.3,18.2,17.1ZM425.1,121.7c-2.4.2-4.9.3-7.2.3-6.4,0-10.5.8-10.5,5.2s2.6,5.2,6.6,5.2c6.1,0,10.6-4.5,11.1-10.7h0Z"></path><path class="st2" d="M469.5,136.9c-3.1,2.1-7.5,3.3-11.5,3.3-9,0-13.7-5.4-13.7-15.6v-17.2h-6.6v-8.1h6.8v-14.1h9.5v14.1h13.4v8.1h-13.4v16.8c0,4.7,1.7,7.2,5.8,7.2s4.8-.9,6.8-2.1l3,7.5h0Z"></path><path class="st2" d="M474,88.5c0-3.5,2.7-6,6.2-6s6,2.6,6,6-2.7,6-6,6-6.2-2.5-6.2-6ZM475.2,139.3v-39.9h9.6v39.9h-9.6Z"></path><path class="st2" d="M489.4,119.3c0-11.6,8.7-21,21.3-21s21.3,9.4,21.3,21-8.7,21-21.3,21-21.3-9.4-21.3-21ZM522.4,119.3c0-6.6-5.1-12.1-11.7-12.1s-11.7,5.4-11.7,12.1,5.1,12.1,11.7,12.1,11.7-5.4,11.7-12.1Z"></path><path class="st2" d="M538.1,99.4h9.4v5.6c2.1-3.9,6.7-6.6,12.6-6.6s15.7,5.3,15.7,16.6v24.3h-9.6v-21.7c0-6.8-3.6-10.5-8.8-10.5s-9.7,4.4-9.7,10.7v21.6h-9.6v-39.9h0Z"></path></g></g></svg> 