<svg id="Layer_1" data-name="Layer 1" xmlns="http://www.w3.org/2000/svg" viewBox="0 0 613.31 68.9"><defs><style>.cls-1{fill:#399542;}.cls-2{fill:#99ca3c;}.cls-3{fill:#39b54a;}.cls-4{fill:#00ad4d;}.cls-5{fill:#3a9441;}.cls-6{fill:#008f44;}.cls-7{fill:#008d46;}</style></defs><path class="cls-1" d="M147.34,19.46v3l-2.12.19c-1.5.24-1.79.57-1.79,2.26l0,11.35H139.9l-.75-4.81c-2.35,3.44-6.26,5.46-11.72,5.46-9.27,0-14.12-6.54-14.12-17.55,0-10.59,5.93-16.9,16-16.9,4.8,0,8.28,1.88,10.12,5.18l.94-4.52h2.73L143,16.83h-3.53l-.33-2.73c-.66-5.09-4.05-7.91-9.22-7.91-5.84,0-11,3.53-11,13.18,0,9.46,3.67,13.74,9.79,13.84,4.85,0,9.18-2.45,9.18-8.15V24.4c0-1.17-.71-1.6-1.93-1.6l-6.69-.23V19.46Z"/><path class="cls-1" d="M169.27,18.1c0,2.59-1.46,3.34-2.92,3.34a2.25,2.25,0,0,1-2.54-2.26,2.06,2.06,0,0,1,1.41-2,3.44,3.44,0,0,0-1.6-.37c-3,0-5.13,3.34-5.13,8.71v6.73c0,1.08.42,1.41,1.88,1.55l3.15.19v2.31h-14V34l2.4-.19c1.18-.14,1.46-.47,1.46-1.55V18c0-1.08-.28-1.41-1.46-1.5l-2.4-.19V14h7.68l.47,5.84c1-4.28,3.24-6.49,6.63-6.49A4.72,4.72,0,0,1,169.27,18.1Z"/><path class="cls-1" d="M195.14,35.42a7.85,7.85,0,0,1-4.38,1.27c-2.77,0-4.23-1.37-4.42-4.19a8.44,8.44,0,0,1-7.72,4.42c-4,0-6.26-2.3-6.26-5.79,0-4.18,2.68-6.3,8.52-7l5-.57V21.72c0-4.57-2-5.32-4.29-5.32a6.05,6.05,0,0,0-4.89,2.07,2,2,0,0,1,1.79,2.12,2.41,2.41,0,0,1-2.64,2.31,2.55,2.55,0,0,1-2.59-2.78c0-3.53,3.58-6.82,9.09-6.82,5.83,0,8.52,2.63,8.52,8.94v9c0,1.51.33,2.21,1.5,2.21a3.77,3.77,0,0,0,2.07-.61Zm-9.27-8v-1l-3.86.47c-3.39.42-5.37,1.18-5.37,3.58s1.65,3.11,3.34,3.11C183.37,33.54,185.87,30.19,185.87,27.42Z"/><path class="cls-1" d="M225.61,33.72v2.55h-12V33.72l2-.18c1-.1,1.27-.38,1.27-1.18V22c0-4.52-2.07-5.5-4.19-5.5-3.2,0-5.79,2.54-5.79,7.67v8.14c0,.85.24,1.18,1.32,1.27l1.89.14v2.55H198.22V33.72l2.16-.18c1.18-.1,1.46-.43,1.46-1.51V18.19c0-1-.28-1.36-1.46-1.51l-2.16-.18V14H206l.42,4.85a8.49,8.49,0,0,1,8.34-5.5c5.08,0,7.2,2.91,7.2,8.37V32c0,1.08.28,1.41,1.46,1.51Z"/><path class="cls-1" d="M244.69,34.24A11.78,11.78,0,0,1,237,36.92c-4.94,0-7.2-2.63-7.2-8.61V16.83h-3V14h3c1.27,0,2-1.64,1.93-6h3.2v6h7.77v2.88H234.9l-.05,11.57c0,3.39,1.18,5,3.53,5a7,7,0,0,0,5.09-2.26Z"/><path class="cls-1" d="M274.85,33.72v2.55h-12V33.72l2-.18c1-.1,1.22-.38,1.22-1.18V21.72c0-4.14-2-5.18-4.23-5.18-3.11,0-5.7,2.59-5.7,7.44v8.33c0,.85.24,1.18,1.32,1.27l1.93.14v2.55h-12V33.72l2.22-.18c1.13-.1,1.46-.43,1.46-1.51V5.86c0-1-.33-1.37-1.46-1.51l-2.22-.19V1.62h8.76V12.26c0,2.12-.05,4-.09,5.65A8.44,8.44,0,0,1,264,13.3c5.13,0,7.25,3,7.25,8V32c0,1.08.28,1.41,1.41,1.51Z"/><path class="cls-1" d="M301.1,35.42a7.85,7.85,0,0,1-4.38,1.27c-2.78,0-4.24-1.37-4.43-4.19a8.44,8.44,0,0,1-7.72,4.42c-3.95,0-6.26-2.3-6.26-5.79,0-4.18,2.69-6.3,8.52-7l5-.57V21.72c0-4.57-2-5.32-4.28-5.32a6.06,6.06,0,0,0-4.9,2.07,2,2,0,0,1,1.79,2.12,2.4,2.4,0,0,1-2.63,2.31,2.55,2.55,0,0,1-2.59-2.78c0-3.53,3.57-6.82,9.08-6.82,5.84,0,8.52,2.63,8.52,8.94v9c0,1.51.33,2.21,1.51,2.21a3.82,3.82,0,0,0,2.07-.61Zm-9.28-8v-1l-3.86.47c-3.39.42-5.36,1.18-5.36,3.58s1.64,3.11,3.34,3.11C289.33,33.54,291.82,30.19,291.82,27.42Z"/><path class="cls-1" d="M345.22,33.72v2.55H333.35V33.72l1.89-.18c1-.1,1.27-.38,1.27-1.18V21.58c0-4-1.7-5.08-3.86-5.08-2.87,0-5.37,2.3-5.37,7v8.85c0,.85.24,1.18,1.23,1.27l1.88.14v2.55H319V33.72l1.88-.18c1-.1,1.27-.38,1.27-1.18v-11c0-3.86-1.69-4.84-3.76-4.84-3,0-5.51,2.4-5.51,7.06v8.75c0,.85.23,1.18,1.22,1.27l1.93.14v2.55H304.17V33.72l2.17-.18c1.17-.1,1.45-.43,1.45-1.51V18.19c0-1-.28-1.36-1.45-1.51l-2.17-.18V14h7.67l.66,4.24a8,8,0,0,1,7.77-4.89c3.91,0,5.93,1.74,6.68,4.75a7.9,7.9,0,0,1,7.67-4.75c5.09,0,7,3,7,8.09V32c0,1.08.28,1.41,1.41,1.51Z"/><path class="cls-1" d="M386.26,12.92h-2.68l-.52-3.48c-.42-2.4-1.13-2.69-3.43-2.69h-11V17.86h11.58v3.58H368.66V31c0,1.46.47,1.79,2.59,2l3.86.24v3H358.87v-3l2.4-.19c1.65-.23,2-.56,2-1.79V8.07c0-1.22-.33-1.55-2-1.74l-2.4-.24v-3h27.39Z"/><path class="cls-1" d="M398.47,36.92c-7.68,0-11.25-4.61-11.25-12.09s3.95-11.53,11.25-11.53,11.2,4,11.2,11.53S406.09,36.92,398.47,36.92Zm0-20.85c-3.16,0-6,2.12-6,8.76s2.63,9.27,6,9.22,6-2.59,6-9.22S401.62,16.07,398.47,16.07Z"/><path class="cls-1" d="M438.93,33.72v2.55h-7.58l-.65-4.38c-1.28,3.15-4.19,5-8.05,5-5.09,0-7.16-3-7.16-8.19V18.19c0-1-.23-1.36-1.32-1.51L412,16.5V14h8.61v15c0,3.77,1.93,4.8,4.05,4.8,3.11,0,5.65-2.73,5.65-7.43v-8.1c0-1-.28-1.36-1.41-1.51l-2.4-.18V14h8.89V32c0,1.08.29,1.41,1.32,1.51Z"/><path class="cls-1" d="M470,33.72v2.55h-12V33.72l2-.18c1-.1,1.27-.38,1.27-1.18V22c0-4.52-2.07-5.5-4.19-5.5-3.2,0-5.79,2.54-5.79,7.67v8.14c0,.85.24,1.18,1.32,1.27l1.88.14v2.55H442.63V33.72l2.17-.18c1.18-.1,1.46-.43,1.46-1.51V18.19c0-1-.28-1.36-1.46-1.51l-2.17-.18V14h7.82l.42,4.85a8.48,8.48,0,0,1,8.33-5.5c5.09,0,7.2,2.91,7.2,8.37V32c0,1.08.29,1.41,1.46,1.51Z"/><path class="cls-1" d="M498.12,34v2.31h-7.29l-.66-3.72c-1.46,2.73-4.19,4.33-8.19,4.33-6,0-9.42-4.24-9.42-11.68,0-7.24,3.34-11.9,10-11.9,3.48,0,5.46,1.55,6.59,3.57V5.67c0-1.08-.28-1.41-1.46-1.51L485.08,4V1.62h9.18v30.6c0,1.08.33,1.41,1.46,1.55Zm-8.71-8.76c0-6.21-2-9.13-5.55-9.08-3.77,0-6,3-6,9.08s2.17,8.85,5.65,8.85C486.68,34.05,489.41,31.75,489.41,25.2Z"/><path class="cls-1" d="M524.28,35.42a7.85,7.85,0,0,1-4.38,1.27c-2.78,0-4.24-1.37-4.43-4.19a8.43,8.43,0,0,1-7.72,4.42c-3.95,0-6.26-2.3-6.26-5.79,0-4.18,2.69-6.3,8.52-7l5-.57V21.72c0-4.57-2-5.32-4.28-5.32a6.07,6.07,0,0,0-4.9,2.07,2,2,0,0,1,1.79,2.12A2.4,2.4,0,0,1,505,22.9a2.55,2.55,0,0,1-2.59-2.78c0-3.53,3.58-6.82,9.08-6.82,5.84,0,8.52,2.63,8.52,8.94v9c0,1.51.33,2.21,1.51,2.21a3.82,3.82,0,0,0,2.07-.61Zm-9.28-8v-1l-3.86.47c-3.39.42-5.36,1.18-5.36,3.58s1.64,3.11,3.34,3.11C512.51,33.54,515,30.19,515,27.42Z"/><path class="cls-1" d="M542.84,34.24a11.78,11.78,0,0,1-7.72,2.68c-4.94,0-7.2-2.63-7.2-8.61V16.83h-3V14h3c1.27,0,2-1.64,1.93-6h3.2v6h7.77v2.88h-7.77l0,11.57c0,3.39,1.17,5,3.53,5a7,7,0,0,0,5.08-2.26Z"/><path class="cls-1" d="M558.54,34v2.31h-12.8V34l2.4-.19c1.12-.14,1.45-.47,1.45-1.55V18c0-1.08-.33-1.41-1.45-1.5l-2.4-.19V14h8.94V32.22c0,1.08.28,1.41,1.41,1.55ZM549.08,7a3,3,0,1,1,6.07,0,3,3,0,1,1-6.07,0Z"/><path class="cls-1" d="M572,36.92c-7.67,0-11.25-4.61-11.25-12.09S564.7,13.3,572,13.3s11.2,4,11.2,11.53S579.62,36.92,572,36.92Zm0-20.85c-3.15,0-6,2.12-6,8.76s2.64,9.27,6,9.22,6-2.59,6-9.22S575.14,16.07,572,16.07Z"/><path class="cls-1" d="M613.31,33.72v2.55h-12V33.72l2-.18c1-.1,1.27-.38,1.27-1.18V22c0-4.52-2.07-5.5-4.19-5.5-3.2,0-5.79,2.54-5.79,7.67v8.14c0,.85.24,1.18,1.32,1.27l1.88.14v2.55h-11.9V33.72l2.16-.18c1.18-.1,1.46-.43,1.46-1.51V18.19c0-1-.28-1.36-1.46-1.51l-2.16-.18V14h7.81l.42,4.85a8.48,8.48,0,0,1,8.33-5.5c5.09,0,7.21,2.91,7.21,8.37V32c0,1.08.28,1.41,1.45,1.51Z"/><path class="cls-1" d="M123.06,51.85l-1.37,1c-.21-1.63-1.2-2.14-2.14-2.14-1.74,0-2.38,1.08-2.38,2.92v2h3.56V57h-3.56l0,9.73h-2V57h-1.86V55.59h1.86V53.82c0-2.77,1.22-4.73,4.24-4.73A3.59,3.59,0,0,1,123.06,51.85Z"/><path class="cls-1" d="M127.79,67.05c-3.65,0-5.46-2.3-5.46-6s2-5.74,5.46-5.74,5.46,2,5.46,5.74S131.44,67.05,127.79,67.05Zm0-10.38c-1.74,0-3.39,1-3.39,4.33s1.53,4.64,3.39,4.62,3.39-1.32,3.39-4.62S129.53,56.67,127.79,56.67Z"/><path class="cls-1" d="M144.32,59.1l-1.61.33c0-2.19-.94-2.62-1.81-2.62-1.51,0-2.71,1.3-2.71,4.26v5.66h-2V55.59h1.53l.26,2.19a3.54,3.54,0,0,1,3.49-2.5C143.49,55.28,144.32,56.7,144.32,59.1Z"/><path class="cls-1" d="M158.32,65.48a4.32,4.32,0,0,1-3.6,1.57c-2.24,0-3.39-1.27-3.39-4.14V57.12h-1.58V55.59h1.58c.54,0,.8-1.13.75-2.92h1.27v2.92h4v1.53h-4l0,5.53c0,1.86.63,2.76,1.93,2.76a2.52,2.52,0,0,0,2.31-1.32Z"/><path class="cls-1" d="M170,59.22v7.51h-2V59.64c0-2.28-1.18-2.78-2.4-2.78-1.77,0-3.25,1.37-3.25,4v5.91h-2V49.42h2v5.75c0,1,0,1.83,0,2.59a4.3,4.3,0,0,1,4-2.5C169,55.26,170,56.77,170,59.22Z"/><path class="cls-1" d="M183,61.45h-8.07c.12,3.09,1.34,4.17,3.2,4.19a2.87,2.87,0,0,0,3.2-2.56l1.63.3c-.29,2.26-2,3.67-5,3.67-3.48,0-5.06-2.28-5.06-6s1.93-5.77,5.37-5.77c3.08,0,4.75,1.67,4.75,5.6Zm-8-1.36h6.16c-.11-2.62-1.31-3.42-2.87-3.42S175.21,57.4,174.93,60.09Z"/><path class="cls-1" d="M203.24,55c0,3.14-1.86,5.37-5.58,5.37h-4.87v6.34h-2.14V50.17h7.2C201.6,50.17,203.24,51.78,203.24,55Zm-2.21.07C201,53,200,52,197.4,52h-4.63v6.71h4.38C199.81,58.67,201,57.12,201,55.09Z"/><path class="cls-1" d="M213.77,59.1l-1.6.33c0-2.19-.94-2.62-1.81-2.62-1.51,0-2.71,1.3-2.71,4.26v5.66h-2V55.59h1.53l.26,2.19a3.54,3.54,0,0,1,3.48-2.5C213,55.28,213.77,56.7,213.77,59.1Z"/><path class="cls-1" d="M220.93,67.05c-3.65,0-5.46-2.3-5.46-6s2-5.74,5.46-5.74,5.46,2,5.46,5.74S224.58,67.05,220.93,67.05Zm0-10.38c-1.74,0-3.39,1-3.39,4.33s1.53,4.64,3.39,4.62,3.39-1.32,3.39-4.62S222.67,56.67,220.93,56.67Z"/><path class="cls-1" d="M236.44,65.48a4.34,4.34,0,0,1-3.61,1.57c-2.23,0-3.38-1.27-3.38-4.14V57.12h-1.58V55.59h1.58c.54,0,.8-1.13.75-2.92h1.27v2.92h4v1.53h-4l0,5.53c0,1.86.63,2.76,1.93,2.76a2.5,2.5,0,0,0,2.3-1.32Z"/><path class="cls-1" d="M247.7,61.45h-8.07c.11,3.09,1.34,4.17,3.2,4.19a2.88,2.88,0,0,0,3.2-2.56l1.62.3c-.28,2.26-2,3.67-5,3.67-3.49,0-5.06-2.28-5.06-6s1.93-5.77,5.36-5.77c3.09,0,4.76,1.67,4.76,5.6Zm-8-1.36h6.17c-.12-2.62-1.32-3.42-2.87-3.42S240,57.4,239.67,60.09Z"/><path class="cls-1" d="M258.39,62.75l1.71.26c-.26,2.51-2,4-5,4-3.7,0-5.25-2.33-5.25-6s1.86-5.75,5.48-5.75c3,0,4.43,1.49,4.69,4l-1.72.28c-.23-1.93-1.15-2.87-2.94-2.87s-3.44,1-3.44,4.33,1.48,4.59,3.3,4.61A3,3,0,0,0,258.39,62.75Z"/><path class="cls-1" d="M270.28,65.48a4.32,4.32,0,0,1-3.6,1.57c-2.24,0-3.39-1.27-3.39-4.14V57.12h-1.58V55.59h1.58c.54,0,.8-1.13.75-2.92h1.27v2.92h4v1.53h-4l0,5.53c0,1.86.64,2.76,1.93,2.76a2.52,2.52,0,0,0,2.31-1.32Z"/><path class="cls-1" d="M272.09,52.13a1.3,1.3,0,0,1,1.3-1.3,1.3,1.3,0,0,1,0,2.59A1.31,1.31,0,0,1,272.09,52.13Zm2.29,3.46V66.73h-2V55.59Z"/><path class="cls-1" d="M282.68,67.05c-3.65,0-5.47-2.3-5.47-6s2-5.74,5.47-5.74,5.46,2,5.46,5.74S286.33,67.05,282.68,67.05Zm0-10.38c-1.75,0-3.39,1-3.39,4.33s1.53,4.64,3.39,4.62,3.39-1.32,3.39-4.62S284.42,56.67,282.68,56.67Z"/><path class="cls-1" d="M300.75,59.22v7.51h-2V59.64c0-2.28-1.2-2.78-2.42-2.78-1.74,0-3.25,1.37-3.25,4v5.91h-2V55.59h1.62L293,58a4.34,4.34,0,0,1,4.17-2.71C299.67,55.26,300.75,56.77,300.75,59.22Z"/><path class="cls-1" d="M313.84,67.05c-3.65,0-5.46-2.3-5.46-6s2-5.74,5.46-5.74,5.46,2,5.46,5.74S317.49,67.05,313.84,67.05Zm0-10.38c-1.74,0-3.39,1-3.39,4.33s1.53,4.64,3.39,4.62,3.39-1.32,3.39-4.62S315.58,56.67,313.84,56.67Z"/><path class="cls-1" d="M330.56,51.85l-1.37,1c-.21-1.63-1.2-2.14-2.14-2.14-1.74,0-2.38,1.08-2.38,2.92v2h3.56V57h-3.56l0,9.73h-2V57h-1.86V55.59h1.86V53.82c0-2.77,1.23-4.73,4.24-4.73A3.59,3.59,0,0,1,330.56,51.85Z"/><path class="cls-1" d="M342.89,65.48a4.32,4.32,0,0,1-3.6,1.57c-2.24,0-3.39-1.27-3.39-4.14V57.12h-1.58V55.59h1.58c.54,0,.8-1.13.75-2.92h1.27v2.92h4v1.53h-4l0,5.53c0,1.86.64,2.76,1.93,2.76a2.52,2.52,0,0,0,2.31-1.32Z"/><path class="cls-1" d="M354.61,59.22v7.51h-2V59.64c0-2.28-1.18-2.78-2.4-2.78-1.77,0-3.25,1.37-3.25,4v5.91h-2V49.42h2v5.75c0,1,0,1.83,0,2.59a4.29,4.29,0,0,1,4.05-2.5C353.53,55.26,354.61,56.77,354.61,59.22Z"/><path class="cls-1" d="M367.53,61.45h-8.08c.12,3.09,1.34,4.17,3.2,4.19a2.88,2.88,0,0,0,3.21-2.56l1.62.3c-.28,2.26-2.05,3.67-5,3.67-3.49,0-5.07-2.28-5.07-6s1.93-5.77,5.37-5.77c3.09,0,4.76,1.67,4.76,5.6Zm-8-1.36h6.17c-.12-2.62-1.32-3.42-2.88-3.42S359.78,57.4,359.5,60.09Z"/><path class="cls-1" d="M377.34,52v5.33H385v1.71h-7.68v5.8h9.16v1.86h-11.3V50.17h11.3V52Z"/><path class="cls-1" d="M398.81,59.22v7.51h-2V59.64c0-2.28-1.2-2.78-2.43-2.78-1.74,0-3.24,1.37-3.24,4v5.91h-2V55.59h1.63L391,58a4.33,4.33,0,0,1,4.16-2.71C397.73,55.26,398.81,56.77,398.81,59.22Z"/><path class="cls-1" d="M412,55.59l-4.76,11.14h-2.28l-4.22-11.14h2.22l3.22,9.6,3.6-9.6Z"/><path class="cls-1" d="M414,52.13a1.28,1.28,0,1,1,1.3,1.29A1.3,1.3,0,0,1,414,52.13Zm2.29,3.46V66.73h-2V55.59Z"/><path class="cls-1" d="M428.09,59.1l-1.6.33c0-2.19-.94-2.62-1.81-2.62-1.51,0-2.71,1.3-2.71,4.26v5.66h-2V55.59h1.53l.26,2.19a3.53,3.53,0,0,1,3.48-2.5C427.27,55.28,428.09,56.7,428.09,59.1Z"/><path class="cls-1" d="M435.25,67.05c-3.65,0-5.46-2.3-5.46-6s2-5.74,5.46-5.74,5.46,2,5.46,5.74S438.9,67.05,435.25,67.05Zm0-10.38c-1.74,0-3.39,1-3.39,4.33s1.53,4.64,3.39,4.62,3.39-1.32,3.39-4.62S437,56.67,435.25,56.67Z"/><path class="cls-1" d="M453.33,59.22v7.51h-2V59.64c0-2.28-1.2-2.78-2.42-2.78-1.74,0-3.25,1.37-3.25,4v5.91h-2V55.59h1.62l.26,2.38a4.35,4.35,0,0,1,4.17-2.71C452.24,55.26,453.33,56.77,453.33,59.22Z"/><path class="cls-1" d="M473.47,59.29v7.44h-2V59.62c0-2.34-1-2.83-2.17-2.83-1.65,0-3.08,1.32-3.08,3.88v6.06h-2V59.54c0-2.26-1-2.75-2.14-2.75-1.72,0-3.15,1.34-3.15,4v6h-2V55.59h1.62l.26,2.28a4.12,4.12,0,0,1,4-2.59,3,3,0,0,1,3.34,2.57A4,4,0,0,1,470,55.28C472.55,55.28,473.47,56.79,473.47,59.29Z"/><path class="cls-1" d="M486.4,61.45h-8.07c.12,3.09,1.34,4.17,3.2,4.19a2.87,2.87,0,0,0,3.2-2.56l1.63.3c-.29,2.26-2.05,3.67-5,3.67-3.48,0-5.06-2.28-5.06-6s1.93-5.77,5.37-5.77c3.08,0,4.75,1.67,4.75,5.6Zm-8-1.36h6.16c-.11-2.62-1.31-3.42-2.87-3.42S478.66,57.4,478.38,60.09Z"/><path class="cls-1" d="M499,59.22v7.51h-2V59.64c0-2.28-1.21-2.78-2.43-2.78-1.74,0-3.25,1.37-3.25,4v5.91h-2V55.59h1.62l.26,2.38a4.35,4.35,0,0,1,4.17-2.71C497.87,55.26,499,56.77,499,59.22Z"/><path class="cls-1" d="M509.74,65.48a4.32,4.32,0,0,1-3.6,1.57c-2.24,0-3.39-1.27-3.39-4.14V57.12h-1.58V55.59h1.58c.54,0,.8-1.13.75-2.92h1.27v2.92h4v1.53h-4l0,5.53c0,1.86.64,2.76,1.93,2.76A2.52,2.52,0,0,0,509,64.09Z"/><path class="cls-2" d="M83.52,8.31s-8.5.47-14.31,3.8a12.46,12.46,0,0,1,.85,4.3A9.38,9.38,0,0,1,64.54,25a9.39,9.39,0,0,0,5.89,4.95A9.37,9.37,0,0,1,77.89,23a10,10,0,0,1,1.83-.16,14,14,0,0,1,2.55.25c2.27-6.3,1.25-14.76,1.25-14.76"/><path class="cls-2" d="M67.23,44.11a9.49,9.49,0,0,0-3.21.57,9.38,9.38,0,0,0-3.33,2.09A9.37,9.37,0,0,1,63,56.69a12.85,12.85,0,0,1-2.27,3.75C65,65.55,72.84,68.9,72.84,68.9s3.85-7.6,3.87-14.29a12.51,12.51,0,0,1-4.15-1.42,9.37,9.37,0,0,1-4.64-9q-.35,0-.69,0"/><path class="cls-3" d="M71.77,37.48a9.29,9.29,0,0,0-2.64,2.92,9.4,9.4,0,0,0-1.21,3.74A9.38,9.38,0,0,1,76,50.28a12.8,12.8,0,0,1,.68,4.33,23,23,0,0,0,3.82.3,42.9,42.9,0,0,0,10.92-1.63S89.52,45,85.23,39.85a12.88,12.88,0,0,1-4.09,1.58,9.16,9.16,0,0,1-1.64.14,9.38,9.38,0,0,1-7.73-4.09"/><path class="cls-4" d="M67.92,44.14a9.37,9.37,0,0,0,4.64,9,12.51,12.51,0,0,0,4.15,1.42A12.8,12.8,0,0,0,76,50.28a9.38,9.38,0,0,0-8.11-6.14"/><path class="cls-3" d="M44.13,35.71A9.38,9.38,0,0,0,39.45,37c-6.6,3.81-9.52,16.31-9.52,16.31a42.9,42.9,0,0,0,10.92,1.63,23.19,23.19,0,0,0,3.83-.3,12.56,12.56,0,0,1,.67-4.33,9.38,9.38,0,0,1,8.11-6.14,9.24,9.24,0,0,0-1.21-3.74,9.36,9.36,0,0,0-8.12-4.69"/><path class="cls-3" d="M60.69,0s-6.22,5.83-8.52,12.11a12.72,12.72,0,0,1,3.41,2.75A9.37,9.37,0,0,1,56.84,25a9.34,9.34,0,0,0,7.7,0A9.37,9.37,0,0,1,65.8,14.86a12.72,12.72,0,0,1,3.41-2.75C66.91,5.83,60.69,0,60.69,0"/><path class="cls-4" d="M69.21,12.11a12.72,12.72,0,0,0-3.41,2.75A9.37,9.37,0,0,0,64.54,25a9.38,9.38,0,0,0,5.52-8.54,12.46,12.46,0,0,0-.85-4.3"/><path class="cls-5" d="M82.27,23.07a12.6,12.6,0,0,1-2.12,3.83A9.33,9.33,0,0,1,73,30.25a9.55,9.55,0,0,1-2.54-.35,9.42,9.42,0,0,0,1.34,7.58A9.35,9.35,0,0,1,81.93,37a12.58,12.58,0,0,1,3.3,2.88c5.78-3.36,10.44-10.5,10.44-10.5s-6.81-5.11-13.4-6.28"/><path class="cls-6" d="M79.72,22.82a10,10,0,0,0-1.83.16,9.37,9.37,0,0,0-7.46,6.92,9.55,9.55,0,0,0,2.54.35,9.33,9.33,0,0,0,7.18-3.35,12.6,12.6,0,0,0,2.12-3.83,14,14,0,0,0-2.55-.25"/><path class="cls-7" d="M77.25,35.71a9.4,9.4,0,0,0-5.48,1.77,9.38,9.38,0,0,0,7.73,4.09,9.16,9.16,0,0,0,1.64-.14,12.88,12.88,0,0,0,4.09-1.58A12.58,12.58,0,0,0,81.93,37a9.38,9.38,0,0,0-4.68-1.26"/><path class="cls-5" d="M54.15,44.11q-.34,0-.69,0a9.37,9.37,0,0,1-4.64,9,12.45,12.45,0,0,1-4.14,1.42c0,6.69,3.86,14.29,3.86,14.29s7.84-3.35,12.15-8.46a12.85,12.85,0,0,1-2.27-3.75,9.37,9.37,0,0,1,2.27-9.92,9.29,9.29,0,0,0-3.33-2.09,9.49,9.49,0,0,0-3.21-.57"/><path class="cls-6" d="M60.69,46.77a9.37,9.37,0,0,0-2.27,9.92,12.85,12.85,0,0,0,2.27,3.75A12.85,12.85,0,0,0,63,56.69a9.37,9.37,0,0,0-2.27-9.92"/><path class="cls-7" d="M53.46,44.14a9.38,9.38,0,0,0-8.11,6.14,12.56,12.56,0,0,0-.67,4.33,12.45,12.45,0,0,0,4.14-1.42,9.37,9.37,0,0,0,4.64-9"/><path class="cls-2" d="M16,19.34c-7.25,0-16,6.52-16,6.52S7,36.61,14.53,37.94a9.16,9.16,0,0,0,1.64.14,9.37,9.37,0,0,0,1.62-18.59A10.12,10.12,0,0,0,16,19.34"/><path class="cls-5" d="M37.86,8.31S36.33,21.06,41.23,26.9A9.35,9.35,0,0,0,56.84,25a9.38,9.38,0,0,1-5.52-8.54,12.46,12.46,0,0,1,.85-4.3c-5.81-3.33-14.31-3.8-14.31-3.8"/><path class="cls-7" d="M52.17,12.11a12.46,12.46,0,0,0-.85,4.3A9.38,9.38,0,0,0,56.84,25a9.37,9.37,0,0,0-1.26-10.09,12.72,12.72,0,0,0-3.41-2.75"/></svg>